<svg width="118" height="118" viewBox="0 0 118 118" fill="none" xmlns="http://www.w3.org/2000/svg">
<circle cx="59" cy="59" r="54.5" fill="url(#paint0_linear_2_4)" stroke="#BF9101" stroke-width="9"/>
<path d="M30.5739 76V69.9318L43.3068 58.7841C44.2614 57.9205 45.0739 57.1307 45.7443 56.4148C46.4148 55.6875 46.9261 54.9602 47.2784 54.233C47.6307 53.4943 47.8068 52.6932 47.8068 51.8295C47.8068 50.8636 47.5966 50.0398 47.1761 49.358C46.7557 48.6648 46.1761 48.1307 45.4375 47.7557C44.6989 47.3807 43.8523 47.1932 42.8977 47.1932C41.9318 47.1932 41.0852 47.392 40.358 47.7898C39.6307 48.1761 39.0625 48.7386 38.6534 49.4773C38.2557 50.2159 38.0568 51.1136 38.0568 52.1705H30.0625C30.0625 49.7955 30.5966 47.7443 31.6648 46.017C32.733 44.2898 34.233 42.9602 36.1648 42.0284C38.108 41.0852 40.3636 40.6136 42.9318 40.6136C45.5795 40.6136 47.8807 41.0568 49.8352 41.9432C51.7898 42.8295 53.3011 44.0682 54.3693 45.6591C55.4489 47.2386 55.9886 49.0739 55.9886 51.1648C55.9886 52.4943 55.7216 53.8125 55.1875 55.1193C54.6534 56.4261 53.6932 57.8693 52.3068 59.4489C50.9318 61.0284 48.9773 62.9205 46.4432 65.125L42.267 68.9773V69.1989H56.4148V76H30.5739ZM74.5469 76.4773C72.0014 76.4773 69.7401 76.017 67.7628 75.0966C65.7855 74.1761 64.223 72.9091 63.0753 71.2955C61.9389 69.6818 61.348 67.8295 61.3026 65.7386H69.4844C69.5526 67.0227 70.0753 68.0568 71.0526 68.8409C72.0298 69.6136 73.1946 70 74.5469 70C75.6037 70 76.5412 69.767 77.3594 69.3011C78.1776 68.8352 78.8196 68.1818 79.2855 67.3409C79.7514 66.4886 79.9787 65.5114 79.9673 64.4091C79.9787 63.2841 79.7457 62.3011 79.2685 61.4602C78.8026 60.6193 78.1548 59.9659 77.3253 59.5C76.5071 59.0227 75.5639 58.7841 74.4957 58.7841C73.4844 58.7727 72.5241 58.9943 71.6151 59.4489C70.7173 59.9034 70.0355 60.5227 69.5696 61.3068L62.1207 59.9091L63.6378 41.0909H86.0355V47.892H70.5753L69.7741 56.125H69.9787C70.5582 55.1591 71.4901 54.3636 72.7741 53.7386C74.0696 53.1023 75.5412 52.7841 77.1889 52.7841C79.2798 52.7841 81.1435 53.2727 82.7798 54.25C84.4276 55.2159 85.723 56.5568 86.6662 58.2727C87.6207 59.9886 88.098 61.9545 88.098 64.1705C88.098 66.5682 87.5298 68.6932 86.3935 70.5455C85.2685 72.3977 83.6889 73.8523 81.6548 74.9091C79.6321 75.9545 77.2628 76.4773 74.5469 76.4773Z" fill="#D7A301"/>
<path d="M30.5739 76H30.0739V76.5H30.5739V76ZM30.5739 69.9318L30.2445 69.5556L30.0739 69.705V69.9318H30.5739ZM43.3068 58.7841L43.6362 59.1603L43.6423 59.1549L43.3068 58.7841ZM45.7443 56.4148L46.1093 56.7566L46.1119 56.7537L45.7443 56.4148ZM47.2784 54.233L47.7284 54.4509L47.7297 54.4482L47.2784 54.233ZM47.1761 49.358L46.7486 49.6173L46.7506 49.6204L47.1761 49.358ZM45.4375 47.7557L45.2112 48.2015L45.2112 48.2015L45.4375 47.7557ZM40.358 47.7898L40.5925 48.2314L40.5979 48.2285L40.358 47.7898ZM38.6534 49.4773L38.216 49.235L38.2132 49.2402L38.6534 49.4773ZM38.0568 52.1705V52.6705H38.5568V52.1705H38.0568ZM30.0625 52.1705H29.5625V52.6705H30.0625V52.1705ZM31.6648 46.017L32.09 46.28L32.09 46.28L31.6648 46.017ZM36.1648 42.0284L36.382 42.4788L36.3831 42.4782L36.1648 42.0284ZM49.8352 41.9432L50.0417 41.4878L50.0417 41.4878L49.8352 41.9432ZM54.3693 45.6591L53.9542 45.9378L53.9565 45.9412L54.3693 45.6591ZM55.1875 55.1193L54.7247 54.9302L54.7247 54.9302L55.1875 55.1193ZM52.3068 59.4489L51.931 59.119L51.9297 59.1206L52.3068 59.4489ZM46.4432 65.125L46.115 64.7478L46.1095 64.7525L46.1042 64.7575L46.4432 65.125ZM42.267 68.9773L41.928 68.6098L41.767 68.7583V68.9773H42.267ZM42.267 69.1989H41.767V69.6989H42.267V69.1989ZM56.4148 69.1989H56.9148V68.6989H56.4148V69.1989ZM56.4148 76V76.5H56.9148V76H56.4148ZM31.0739 76V69.9318H30.0739V76H31.0739ZM30.9032 70.308L43.6362 59.1603L42.9775 58.4079L30.2445 69.5556L30.9032 70.308ZM43.6423 59.1549C44.6041 58.2846 45.427 57.4851 46.1093 56.7565L45.3794 56.073C44.7207 56.7763 43.9186 57.5563 42.9714 58.4133L43.6423 59.1549ZM46.1119 56.7537C46.8085 55.9981 47.3506 55.2309 47.7284 54.4509L46.8284 54.015C46.5017 54.6895 46.0211 55.3769 45.3767 56.0759L46.1119 56.7537ZM47.7297 54.4482C48.1158 53.6386 48.3068 52.7634 48.3068 51.8295H47.3068C47.3068 52.6229 47.1456 53.35 46.8271 54.0177L47.7297 54.4482ZM48.3068 51.8295C48.3068 50.7901 48.08 49.8711 47.6017 49.0955L46.7506 49.6204C47.1132 50.2085 47.3068 50.9371 47.3068 51.8295H48.3068ZM47.6036 49.0986C47.1337 48.3239 46.4837 47.7261 45.6638 47.3098L45.2112 48.2015C45.8686 48.5353 46.3776 49.0056 46.7486 49.6173L47.6036 49.0986ZM45.6638 47.3098C44.8451 46.8942 43.9189 46.6932 42.8977 46.6932V47.6932C43.7856 47.6932 44.5526 47.8672 45.2112 48.2015L45.6638 47.3098ZM42.8977 46.6932C41.8619 46.6932 40.9302 46.9069 40.118 47.3511L40.5979 48.2285C41.2402 47.8772 42.0017 47.6932 42.8977 47.6932V46.6932ZM40.1234 47.3482C39.3084 47.7812 38.6707 48.414 38.216 49.235L39.0908 49.7195C39.4543 49.0633 39.953 48.5711 40.5925 48.2313L40.1234 47.3482ZM38.2132 49.2402C37.7673 50.0682 37.5568 51.052 37.5568 52.1705H38.5568C38.5568 51.1753 38.744 50.3636 39.0936 49.7143L38.2132 49.2402ZM38.0568 51.6705H30.0625V52.6705H38.0568V51.6705ZM30.5625 52.1705C30.5625 49.8724 31.0785 47.9157 32.09 46.28L31.2395 45.7541C30.1147 47.5729 29.5625 49.7185 29.5625 52.1705H30.5625ZM32.09 46.28C33.1053 44.6384 34.5309 43.3716 36.382 42.4788L35.9475 41.5781C33.935 42.5488 32.3607 43.9412 31.2395 45.7541L32.09 46.28ZM36.3831 42.4782C38.2466 41.5737 40.4251 41.1136 42.9318 41.1136V40.1136C40.3022 40.1136 37.9694 40.5967 35.9464 41.5786L36.3831 42.4782ZM42.9318 41.1136C45.5245 41.1136 47.7524 41.5476 49.6287 42.3985L50.0417 41.4878C48.009 40.566 45.6345 40.1136 42.9318 40.1136V41.1136ZM49.6287 42.3985C51.5091 43.2513 52.9438 44.433 53.9542 45.9378L54.7844 45.3804C53.6584 43.7034 52.0704 42.4078 50.0417 41.4878L49.6287 42.3985ZM53.9565 45.9412C54.974 47.4299 55.4886 49.1648 55.4886 51.1648H56.4886C56.4886 48.983 55.9238 47.0474 54.7821 45.377L53.9565 45.9412ZM55.4886 51.1648C55.4886 52.4255 55.2358 53.6796 54.7247 54.9302L55.6503 55.3085C56.2074 53.9454 56.4886 52.5631 56.4886 51.1648H55.4886ZM54.7247 54.9302C54.2192 56.167 53.2969 57.5629 51.931 59.119L52.6826 59.7787C54.0895 58.1758 55.0876 56.6853 55.6503 55.3085L54.7247 54.9302ZM51.9297 59.1206C50.5761 60.6755 48.6407 62.5505 46.115 64.7478L46.7714 65.5022C49.3138 63.2904 51.2875 61.3813 52.6839 59.7772L51.9297 59.1206ZM46.1042 64.7575L41.928 68.6098L42.6061 69.3448L46.7822 65.4925L46.1042 64.7575ZM41.767 68.9773V69.1989H42.767V68.9773H41.767ZM42.267 69.6989H56.4148V68.6989H42.267V69.6989ZM55.9148 69.1989V76H56.9148V69.1989H55.9148ZM56.4148 75.5H30.5739V76.5H56.4148V75.5ZM67.7628 75.0966L67.5518 75.5499L67.5518 75.5499L67.7628 75.0966ZM63.0753 71.2955L62.6665 71.5833L62.6678 71.5853L63.0753 71.2955ZM61.3026 65.7386V65.2386H60.7916L60.8027 65.7495L61.3026 65.7386ZM69.4844 65.7386L69.9837 65.7121L69.9585 65.2386H69.4844V65.7386ZM71.0526 68.8409L70.7396 69.2309L70.7424 69.2331L71.0526 68.8409ZM77.3594 69.3011L77.112 68.8666L77.112 68.8666L77.3594 69.3011ZM79.2855 67.3409L79.7229 67.5832L79.7242 67.5807L79.2855 67.3409ZM79.9673 64.4091L79.4673 64.404L79.4674 64.4142L79.9673 64.4091ZM79.2685 61.4602L78.8311 61.7026L78.8336 61.707L79.2685 61.4602ZM77.3253 59.5L77.0733 59.9319L77.0804 59.9359L77.3253 59.5ZM74.4957 58.7841L74.4901 59.2841H74.4957V58.7841ZM71.6151 59.4489L71.3914 59.0016L71.3892 59.0028L71.6151 59.4489ZM69.5696 61.3068L69.4774 61.7982L69.8209 61.8627L69.9994 61.5622L69.5696 61.3068ZM62.1207 59.9091L61.6224 59.8689L61.5862 60.3175L62.0285 60.4005L62.1207 59.9091ZM63.6378 41.0909V40.5909H63.1765L63.1394 41.0507L63.6378 41.0909ZM86.0355 41.0909H86.5355V40.5909H86.0355V41.0909ZM86.0355 47.892V48.392H86.5355V47.892H86.0355ZM70.5753 47.892V47.392H70.1216L70.0776 47.8436L70.5753 47.892ZM69.7741 56.125L69.2765 56.0766L69.2231 56.625H69.7741V56.125ZM69.9787 56.125V56.625H70.2618L70.4074 56.3822L69.9787 56.125ZM72.7741 53.7386L72.993 54.1882L72.9946 54.1874L72.7741 53.7386ZM82.7798 54.25L82.5234 54.6793L82.527 54.6813L82.7798 54.25ZM86.6662 58.2727L86.228 58.5136L86.2293 58.5158L86.6662 58.2727ZM86.3935 70.5455L85.9673 70.284L85.9661 70.2859L86.3935 70.5455ZM81.6548 74.9091L81.8844 75.3533L81.8854 75.3528L81.6548 74.9091ZM74.5469 75.9773C72.0622 75.9773 69.8748 75.5283 67.9738 74.6433L67.5518 75.5499C69.6053 76.5058 71.9406 76.9773 74.5469 76.9773V75.9773ZM67.9738 74.6433C66.0669 73.7556 64.5753 72.5417 63.4827 71.0057L62.6678 71.5853C63.8707 73.2765 65.5041 74.5967 67.5518 75.5499L67.9738 74.6433ZM63.4841 71.0076C62.4084 69.4801 61.8459 67.7256 61.8024 65.7278L60.8027 65.7495C60.8502 67.9335 61.4694 69.8835 62.6665 71.5833L63.4841 71.0076ZM61.3026 66.2386H69.4844V65.2386H61.3026V66.2386ZM68.9851 65.7651C69.0606 67.1871 69.648 68.3551 70.7397 69.2309L71.3655 68.4509C70.5025 67.7586 70.0445 66.8583 69.9837 65.7121L68.9851 65.7651ZM70.7424 69.2331C71.8157 70.0818 73.0923 70.5 74.5469 70.5V69.5C73.2969 69.5 72.2439 69.1455 71.3627 68.4487L70.7424 69.2331ZM74.5469 70.5C75.6796 70.5 76.7043 70.2495 77.6068 69.7356L77.112 68.8666C76.3781 69.2846 75.5278 69.5 74.5469 69.5V70.5ZM77.6068 69.7356C78.5065 69.2233 79.2135 68.5026 79.7229 67.5832L78.8482 67.0986C78.4257 67.861 77.8486 68.4471 77.112 68.8666L77.6068 69.7356ZM79.7242 67.5807C80.2365 66.6437 80.4794 65.58 80.4673 64.4039L79.4674 64.4142C79.478 65.4427 79.2664 66.3335 78.8468 67.1011L79.7242 67.5807ZM80.4673 64.4141C80.4794 63.2155 80.2308 62.1428 79.7033 61.2134L78.8336 61.707C79.2607 62.4594 79.478 63.3527 79.4674 64.404L80.4673 64.4141ZM79.7058 61.2179C79.1954 60.2967 78.4815 59.5759 77.5701 59.0641L77.0804 59.9359C77.8282 60.3559 78.4097 60.9419 78.8311 61.7025L79.7058 61.2179ZM77.5772 59.0681C76.6732 58.5408 75.6409 58.2841 74.4957 58.2841V59.2841C75.4869 59.2841 76.341 59.5047 77.0733 59.9319L77.5772 59.0681ZM74.5014 58.2841C73.4101 58.2719 72.3713 58.5117 71.3915 59.0017L71.8387 59.8961C72.677 59.4769 73.5587 59.2736 74.4901 59.2841L74.5014 58.2841ZM71.3892 59.0028C70.4158 59.4956 69.6591 60.1774 69.1398 61.0514L69.9994 61.5622C70.4119 60.8681 71.0189 60.3112 71.8409 59.8949L71.3892 59.0028ZM69.6618 60.8154L62.213 59.4177L62.0285 60.4005L69.4774 61.7982L69.6618 60.8154ZM62.6191 59.9493L64.1362 41.1311L63.1394 41.0507L61.6224 59.8689L62.6191 59.9493ZM63.6378 41.5909H86.0355V40.5909H63.6378V41.5909ZM85.5355 41.0909V47.892H86.5355V41.0909H85.5355ZM86.0355 47.392H70.5753V48.392H86.0355V47.392ZM70.0776 47.8436L69.2765 56.0766L70.2718 56.1734L71.0729 47.9405L70.0776 47.8436ZM69.7741 56.625H69.9787V55.625H69.7741V56.625ZM70.4074 56.3822C70.9253 55.5191 71.7728 54.7821 72.993 54.1882L72.5553 53.2891C71.2073 53.9452 70.1912 54.7991 69.5499 55.8678L70.4074 56.3822ZM72.9946 54.1874C74.2123 53.5892 75.6068 53.2841 77.1889 53.2841V52.2841C75.4756 52.2841 73.9269 52.6153 72.5537 53.2899L72.9946 54.1874ZM77.1889 53.2841C79.1986 53.2841 80.972 53.7527 82.5235 54.6793L83.0362 53.8207C81.3149 52.7927 79.3611 52.2841 77.1889 52.2841V53.2841ZM82.527 54.6813C84.0948 55.6004 85.3271 56.8746 86.228 58.5136L87.1044 58.0319C86.1189 56.239 84.7603 54.8314 83.0327 53.8187L82.527 54.6813ZM86.2293 58.5158C87.1374 60.1482 87.598 62.0285 87.598 64.1705H88.598C88.598 61.8806 88.1041 59.8291 87.1031 58.0297L86.2293 58.5158ZM87.598 64.1705C87.598 66.4857 87.0505 68.5184 85.9673 70.284L86.8197 70.8069C88.0092 68.868 88.598 66.6506 88.598 64.1705H87.598ZM85.9661 70.2859C84.8914 72.0554 83.3821 73.4482 81.4243 74.4654L81.8854 75.3528C83.9958 74.2563 85.6455 72.7401 86.8208 70.805L85.9661 70.2859ZM81.4253 74.4649C79.4859 75.4672 77.1982 75.9773 74.5469 75.9773V76.9773C77.3274 76.9773 79.7783 76.4418 81.8844 75.3533L81.4253 74.4649Z" fill="#BF8F01"/>
<defs>
<linearGradient id="paint0_linear_2_4" x1="-1" y1="9" x2="109" y2="109" gradientUnits="userSpaceOnUse">
<stop offset="0.03" stop-color="#E9C34F"/>
<stop offset="1" stop-color="#E9C34F"/>
</linearGradient>
</defs>
</svg>
