<svg width="118" height="118" viewBox="0 0 118 118" fill="none" xmlns="http://www.w3.org/2000/svg">
<circle cx="59" cy="59" r="54.5" fill="url(#paint0_linear_2_12)" stroke="#BF9101" stroke-width="9"/>
<path d="M65.7159 41.0909V76H57.2955V48.9659H57.0909L49.2841 53.7386V46.4432L57.892 41.0909H65.7159Z" fill="#D7A301"/>
<path d="M65.7159 41.0909H66.2159V40.5909H65.7159V41.0909ZM65.7159 76V76.5H66.2159V76H65.7159ZM57.2955 76H56.7955V76.5H57.2955V76ZM57.2955 48.9659H57.7955V48.4659H57.2955V48.9659ZM57.0909 48.9659V48.4659H56.9502L56.8301 48.5393L57.0909 48.9659ZM49.2841 53.7386H48.7841V54.6303L49.5449 54.1652L49.2841 53.7386ZM49.2841 46.4432L49.0201 46.0186L48.7841 46.1653V46.4432H49.2841ZM57.892 41.0909V40.5909H57.7493L57.628 40.6663L57.892 41.0909ZM65.2159 41.0909V76H66.2159V41.0909H65.2159ZM65.7159 75.5H57.2955V76.5H65.7159V75.5ZM57.7955 76V48.9659H56.7955V76H57.7955ZM57.2955 48.4659H57.0909V49.4659H57.2955V48.4659ZM56.8301 48.5393L49.0233 53.312L49.5449 54.1652L57.3517 49.3925L56.8301 48.5393ZM49.7841 53.7386V46.4432H48.7841V53.7386H49.7841ZM49.5481 46.8678L58.1561 41.5155L57.628 40.6663L49.0201 46.0186L49.5481 46.8678ZM57.892 41.5909H65.7159V40.5909H57.892V41.5909Z" fill="#C7AC5E"/>
<defs>
<linearGradient id="paint0_linear_2_12" x1="-1" y1="9" x2="109" y2="109" gradientUnits="userSpaceOnUse">
<stop offset="0.03" stop-color="#E9C34F"/>
<stop offset="1" stop-color="#E9C34F"/>
</linearGradient>
</defs>
</svg>
