<svg width="118" height="118" viewBox="0 0 118 118" fill="none" xmlns="http://www.w3.org/2000/svg">
<circle cx="59" cy="59" r="54.5" fill="url(#paint0_linear_2_9)" stroke="#BF9101" stroke-width="9"/>
<path d="M48.7159 41.0909V76H40.2955V48.9659H40.0909L32.2841 53.7386V46.4432L40.892 41.0909H48.7159ZM70.8707 76.8523C67.8253 76.8523 65.2003 76.1307 62.9957 74.6875C60.7912 73.233 59.0923 71.1477 57.8991 68.4318C56.706 65.7045 56.1151 62.4261 56.1264 58.5966C56.1378 54.767 56.7344 51.517 57.9162 48.8466C59.1094 46.1648 60.8026 44.125 62.9957 42.7273C65.2003 41.3182 67.8253 40.6136 70.8707 40.6136C73.9162 40.6136 76.5412 41.3182 78.7457 42.7273C80.9616 44.125 82.6662 46.1648 83.8594 48.8466C85.0526 51.5284 85.6435 54.7784 85.6321 58.5966C85.6321 62.4375 85.0355 65.7216 83.8423 68.4489C82.6491 71.1761 80.9503 73.2614 78.7457 74.7045C76.5526 76.1364 73.9276 76.8523 70.8707 76.8523ZM70.8707 69.9489C72.6889 69.9489 74.1605 69.0227 75.2855 67.1705C76.4105 65.3068 76.9673 62.4489 76.956 58.5966C76.956 56.0739 76.7003 53.9943 76.1889 52.358C75.6776 50.7102 74.9673 49.483 74.0582 48.6761C73.1491 47.8693 72.0866 47.4659 70.8707 47.4659C69.0639 47.4659 67.6037 48.3807 66.4901 50.2102C65.3764 52.0284 64.8139 54.8239 64.8026 58.5966C64.7912 61.1534 65.0355 63.2727 65.5355 64.9545C66.0469 66.6364 66.7628 67.892 67.6832 68.7216C68.6037 69.5398 69.6662 69.9489 70.8707 69.9489Z" fill="#D7A301"/>
<path d="M48.7159 41.0909H49.2159V40.5909H48.7159V41.0909ZM48.7159 76V76.5H49.2159V76H48.7159ZM40.2955 76H39.7955V76.5H40.2955V76ZM40.2955 48.9659H40.7955V48.4659H40.2955V48.9659ZM40.0909 48.9659V48.4659H39.9502L39.8301 48.5393L40.0909 48.9659ZM32.2841 53.7386H31.7841V54.6303L32.5449 54.1652L32.2841 53.7386ZM32.2841 46.4432L32.0201 46.0186L31.7841 46.1653V46.4432H32.2841ZM40.892 41.0909V40.5909H40.7493L40.628 40.6663L40.892 41.0909ZM48.2159 41.0909V76H49.2159V41.0909H48.2159ZM48.7159 75.5H40.2955V76.5H48.7159V75.5ZM40.7955 76V48.9659H39.7955V76H40.7955ZM40.2955 48.4659H40.0909V49.4659H40.2955V48.4659ZM39.8301 48.5393L32.0233 53.312L32.5449 54.1652L40.3517 49.3925L39.8301 48.5393ZM32.7841 53.7386V46.4432H31.7841V53.7386H32.7841ZM32.5481 46.8678L41.1561 41.5155L40.628 40.6663L32.0201 46.0186L32.5481 46.8678ZM40.892 41.5909H48.7159V40.5909H40.892V41.5909ZM62.9957 74.6875L62.7204 75.1048L62.7219 75.1058L62.9957 74.6875ZM57.8991 68.4318L57.4411 68.6322L57.4414 68.6329L57.8991 68.4318ZM56.1264 58.5966L55.6264 58.5951L55.6264 58.5951L56.1264 58.5966ZM57.9162 48.8466L57.4594 48.6433L57.459 48.6442L57.9162 48.8466ZM62.9957 42.7273L63.2645 43.1489L63.265 43.1486L62.9957 42.7273ZM78.7457 42.7273L78.4765 43.1486L78.479 43.1502L78.7457 42.7273ZM83.8594 48.8466L84.3162 48.6433L84.3162 48.6433L83.8594 48.8466ZM85.6321 58.5966L85.1321 58.5951V58.5966H85.6321ZM83.8423 68.4489L83.3843 68.2485L83.3843 68.2485L83.8423 68.4489ZM78.7457 74.7045L79.0191 75.1232L79.0196 75.1229L78.7457 74.7045ZM75.2855 67.1705L75.7129 67.43L75.7136 67.4289L75.2855 67.1705ZM76.956 58.5966L76.456 58.5966L76.456 58.5981L76.956 58.5966ZM76.1889 52.358L75.7114 52.5062L75.7117 52.5071L76.1889 52.358ZM74.0582 48.6761L74.3901 48.3022L74.3901 48.3022L74.0582 48.6761ZM66.4901 50.2102L66.9164 50.4714L66.9172 50.4702L66.4901 50.2102ZM64.8026 58.5966L65.3026 58.5988L65.3026 58.5981L64.8026 58.5966ZM65.5355 64.9545L65.0562 65.097L65.0571 65.1L65.5355 64.9545ZM67.6832 68.7216L67.3485 69.093L67.3511 69.0953L67.6832 68.7216ZM70.8707 76.3523C67.907 76.3523 65.3807 75.6511 63.2696 74.2692L62.7219 75.1058C65.0199 76.6102 67.7435 77.3523 70.8707 77.3523V76.3523ZM63.2711 74.2702C61.1565 72.875 59.5163 70.8697 58.3569 68.2307L57.4414 68.6329C58.6684 71.4258 60.4258 73.5909 62.7204 75.1048L63.2711 74.2702ZM58.3572 68.2314C57.1986 65.5832 56.6152 62.3772 56.6264 58.5981L55.6264 58.5951C55.6149 62.475 56.2133 65.8259 57.4411 68.6322L58.3572 68.2314ZM56.6264 58.5981C56.6376 54.8172 57.2269 51.6397 58.3734 49.0489L57.459 48.6442C56.2419 51.3944 55.6379 54.7169 55.6264 58.5951L56.6264 58.5981ZM58.373 49.0498C59.5316 46.4458 61.1644 44.4873 63.2645 43.1489L62.727 42.3056C60.4407 43.7627 58.6871 45.8838 57.4594 48.6433L58.373 49.0498ZM63.265 43.1486C65.3767 41.7988 67.9048 41.1136 70.8707 41.1136V40.1136C67.7458 40.1136 65.0239 40.8375 62.7265 42.306L63.265 43.1486ZM70.8707 41.1136C73.8367 41.1136 76.3648 41.7988 78.4765 43.1486L79.015 42.306C76.7176 40.8375 73.9957 40.1136 70.8707 40.1136V41.1136ZM78.479 43.1502C80.6013 44.4889 82.2446 46.4472 83.4025 49.0498L84.3162 48.6433C83.0878 45.8824 81.322 43.7611 79.0125 42.3044L78.479 43.1502ZM83.4025 49.0498C84.5598 51.6509 85.1433 54.8271 85.1321 58.5951L86.1321 58.5981C86.1436 54.7297 85.5453 51.4059 84.3162 48.6433L83.4025 49.0498ZM85.1321 58.5966C85.1321 62.3877 84.543 65.5999 83.3843 68.2485L84.3004 68.6493C85.528 65.8433 86.1321 62.4873 86.1321 58.5966H85.1321ZM83.3843 68.2485C82.2248 70.8986 80.5849 72.9029 78.4719 74.2862L79.0196 75.1229C81.3156 73.6198 83.0735 71.4536 84.3004 68.6493L83.3843 68.2485ZM78.4724 74.2859C76.3734 75.6562 73.8471 76.3523 70.8707 76.3523V77.3523C74.0081 77.3523 76.7318 76.6165 79.0191 75.1232L78.4724 74.2859ZM70.8707 70.4489C72.8996 70.4489 74.5176 69.398 75.7129 67.43L74.8582 66.9109C73.8034 68.6475 72.4783 69.4489 70.8707 69.4489V70.4489ZM75.7136 67.4289C76.9098 65.4472 77.4674 62.4778 77.456 58.5951L76.456 58.5981C76.4672 62.4199 75.9112 65.1664 74.8575 66.9121L75.7136 67.4289ZM77.456 58.5966C77.456 56.0448 77.1979 53.9104 76.6662 52.2088L75.7117 52.5071C76.2027 54.0782 76.456 56.1029 76.456 58.5966H77.456ZM76.6665 52.2098C76.1388 50.5096 75.3903 49.1898 74.3901 48.3022L73.7263 49.0501C74.5444 49.7761 75.2163 50.9109 75.7114 52.5062L76.6665 52.2098ZM74.3901 48.3022C73.3895 47.4141 72.2089 46.9659 70.8707 46.9659V47.9659C71.9644 47.9659 72.9088 48.3245 73.7263 49.0501L74.3901 48.3022ZM70.8707 46.9659C68.8545 46.9659 67.2476 48.0041 66.063 49.9503L66.9172 50.4702C67.9598 48.7573 69.2733 47.9659 70.8707 47.9659V46.9659ZM66.0637 49.9491C64.878 51.8849 64.314 54.7919 64.3026 58.5951L65.3026 58.5981C65.3138 54.8558 65.8749 52.1719 66.9164 50.4714L66.0637 49.9491ZM64.3026 58.5944C64.2911 61.1799 64.5375 63.3521 65.0562 65.097L66.0148 64.8121C65.5335 63.1933 65.2913 61.1269 65.3026 58.5988L64.3026 58.5944ZM65.0571 65.1C65.5844 66.8342 66.338 68.1823 67.3485 69.093L68.018 68.3502C67.1876 67.6018 66.5093 66.4385 66.0139 64.8091L65.0571 65.1ZM67.3511 69.0953C68.3608 69.9928 69.5407 70.4489 70.8707 70.4489V69.4489C69.7916 69.4489 68.8466 69.0867 68.0154 68.3479L67.3511 69.0953Z" fill="#BF8F01"/>
<defs>
<linearGradient id="paint0_linear_2_9" x1="-1" y1="9" x2="109" y2="109" gradientUnits="userSpaceOnUse">
<stop offset="0.03" stop-color="#E9C34F"/>
<stop offset="1" stop-color="#E9C34F"/>
</linearGradient>
</defs>
</svg>
