<svg width="118" height="118" viewBox="0 0 118 118" fill="none" xmlns="http://www.w3.org/2000/svg">
<circle cx="59" cy="59" r="54.5" fill="url(#paint0_linear_2_6)" stroke="#BF9101" stroke-width="9"/>
<path d="M59.1641 76.4773C56.6186 76.4773 54.3572 76.017 52.38 75.0966C50.4027 74.1761 48.8402 72.9091 47.6925 71.2955C46.5561 69.6818 45.9652 67.8295 45.9197 65.7386H54.1016C54.1697 67.0227 54.6925 68.0568 55.6697 68.8409C56.647 69.6136 57.8118 70 59.1641 70C60.2209 70 61.1584 69.767 61.9766 69.3011C62.7947 68.8352 63.4368 68.1818 63.9027 67.3409C64.3686 66.4886 64.5959 65.5114 64.5845 64.4091C64.5959 63.2841 64.3629 62.3011 63.8857 61.4602C63.4197 60.6193 62.772 59.9659 61.9425 59.5C61.1243 59.0227 60.1811 58.7841 59.1129 58.7841C58.1016 58.7727 57.1413 58.9943 56.2322 59.4489C55.3345 59.9034 54.6527 60.5227 54.1868 61.3068L46.7379 59.9091L48.255 41.0909H70.6527V47.892H55.1925L54.3913 56.125H54.5959C55.1754 55.1591 56.1072 54.3636 57.3913 53.7386C58.6868 53.1023 60.1584 52.7841 61.8061 52.7841C63.897 52.7841 65.7607 53.2727 67.397 54.25C69.0447 55.2159 70.3402 56.5568 71.2834 58.2727C72.2379 59.9886 72.7152 61.9545 72.7152 64.1705C72.7152 66.5682 72.147 68.6932 71.0107 70.5455C69.8857 72.3977 68.3061 73.8523 66.272 74.9091C64.2493 75.9545 61.88 76.4773 59.1641 76.4773Z" fill="#D7A301"/>
<path d="M52.38 75.0966L52.169 75.5499L52.169 75.5499L52.38 75.0966ZM47.6925 71.2955L47.2837 71.5833L47.285 71.5853L47.6925 71.2955ZM45.9197 65.7386V65.2386H45.4088L45.4199 65.7495L45.9197 65.7386ZM54.1016 65.7386L54.6009 65.7121L54.5757 65.2386H54.1016V65.7386ZM55.6697 68.8409L55.3568 69.2309L55.3596 69.2331L55.6697 68.8409ZM61.9766 69.3011L61.7291 68.8666L61.7291 68.8666L61.9766 69.3011ZM63.9027 67.3409L64.3401 67.5832L64.3414 67.5807L63.9027 67.3409ZM64.5845 64.4091L64.0844 64.404L64.0845 64.4142L64.5845 64.4091ZM63.8857 61.4602L63.4483 61.7026L63.4508 61.707L63.8857 61.4602ZM61.9425 59.5L61.6905 59.9319L61.6976 59.9359L61.9425 59.5ZM59.1129 58.7841L59.1073 59.2841H59.1129V58.7841ZM56.2322 59.4489L56.0086 59.0016L56.0064 59.0028L56.2322 59.4489ZM54.1868 61.3068L54.0946 61.7982L54.4381 61.8627L54.6166 61.5622L54.1868 61.3068ZM46.7379 59.9091L46.2395 59.8689L46.2034 60.3175L46.6457 60.4005L46.7379 59.9091ZM48.255 41.0909V40.5909H47.7937L47.7566 41.0507L48.255 41.0909ZM70.6527 41.0909H71.1527V40.5909H70.6527V41.0909ZM70.6527 47.892V48.392H71.1527V47.892H70.6527ZM55.1925 47.892V47.392H54.7388L54.6948 47.8436L55.1925 47.892ZM54.3913 56.125L53.8937 56.0766L53.8403 56.625H54.3913V56.125ZM54.5959 56.125V56.625H54.879L55.0246 56.3822L54.5959 56.125ZM57.3913 53.7386L57.6102 54.1882L57.6118 54.1874L57.3913 53.7386ZM67.397 54.25L67.1406 54.6793L67.1442 54.6813L67.397 54.25ZM71.2834 58.2727L70.8452 58.5136L70.8464 58.5158L71.2834 58.2727ZM71.0107 70.5455L70.5845 70.284L70.5833 70.2859L71.0107 70.5455ZM66.272 74.9091L66.5016 75.3533L66.5025 75.3528L66.272 74.9091ZM59.1641 75.9773C56.6794 75.9773 54.492 75.5283 52.591 74.6433L52.169 75.5499C54.2225 76.5058 56.5578 76.9773 59.1641 76.9773V75.9773ZM52.591 74.6433C50.6841 73.7556 49.1925 72.5417 48.0999 71.0057L47.285 71.5853C48.4879 73.2765 50.1213 74.5967 52.169 75.5499L52.591 74.6433ZM48.1013 71.0076C47.0256 69.4801 46.4631 67.7256 46.4196 65.7278L45.4199 65.7495C45.4673 67.9335 46.0866 69.8835 47.2837 71.5833L48.1013 71.0076ZM45.9197 66.2386H54.1016V65.2386H45.9197V66.2386ZM53.6023 65.7651C53.6778 67.1871 54.2652 68.3551 55.3568 69.2309L55.9826 68.4509C55.1197 67.7586 54.6617 66.8583 54.6009 65.7121L53.6023 65.7651ZM55.3596 69.2331C56.4329 70.0818 57.7095 70.5 59.1641 70.5V69.5C57.9141 69.5 56.8611 69.1455 55.9799 68.4487L55.3596 69.2331ZM59.1641 70.5C60.2968 70.5 61.3215 70.2495 62.224 69.7356L61.7291 68.8666C60.9952 69.2846 60.145 69.5 59.1641 69.5V70.5ZM62.224 69.7356C63.1237 69.2233 63.8307 68.5026 64.3401 67.5832L63.4653 67.0986C63.0429 67.861 62.4658 68.4471 61.7291 68.8666L62.224 69.7356ZM64.3414 67.5807C64.8537 66.6437 65.0966 65.58 65.0845 64.4039L64.0845 64.4142C64.0951 65.4427 63.8836 66.3335 63.464 67.1011L64.3414 67.5807ZM65.0845 64.4141C65.0966 63.2155 64.848 62.1428 64.3205 61.2134L63.4508 61.707C63.8779 62.4594 64.0952 63.3527 64.0845 64.404L65.0845 64.4141ZM64.323 61.2179C63.8126 60.2967 63.0986 59.5759 62.1873 59.0641L61.6976 59.9359C62.4454 60.3559 63.0269 60.9419 63.4483 61.7025L64.323 61.2179ZM62.1944 59.0681C61.2904 58.5408 60.2581 58.2841 59.1129 58.2841V59.2841C60.1041 59.2841 60.9582 59.5047 61.6905 59.9319L62.1944 59.0681ZM59.1185 58.2841C58.0273 58.2719 56.9885 58.5117 56.0086 59.0017L56.4559 59.8961C57.2942 59.4769 58.1759 59.2736 59.1073 59.2841L59.1185 58.2841ZM56.0064 59.0028C55.033 59.4956 54.2763 60.1774 53.7569 61.0514L54.6166 61.5622C55.0291 60.8681 55.636 60.3112 56.4581 59.8949L56.0064 59.0028ZM54.279 60.8154L46.8301 59.4177L46.6457 60.4005L54.0946 61.7982L54.279 60.8154ZM47.2363 59.9493L48.7534 41.1311L47.7566 41.0507L46.2395 59.8689L47.2363 59.9493ZM48.255 41.5909H70.6527V40.5909H48.255V41.5909ZM70.1527 41.0909V47.892H71.1527V41.0909H70.1527ZM70.6527 47.392H55.1925V48.392H70.6527V47.392ZM54.6948 47.8436L53.8937 56.0766L54.889 56.1734L55.6901 47.9405L54.6948 47.8436ZM54.3913 56.625H54.5959V55.625H54.3913V56.625ZM55.0246 56.3822C55.5425 55.5191 56.39 54.7821 57.6102 54.1882L57.1725 53.2891C55.8245 53.9452 54.8083 54.7991 54.1671 55.8678L55.0246 56.3822ZM57.6118 54.1874C58.8295 53.5892 60.224 53.2841 61.8061 53.2841V52.2841C60.0928 52.2841 58.5441 52.6153 57.1709 53.2899L57.6118 54.1874ZM61.8061 53.2841C63.8158 53.2841 65.5892 53.7527 67.1406 54.6793L67.6534 53.8207C65.9321 52.7927 63.9783 52.2841 61.8061 52.2841V53.2841ZM67.1442 54.6813C68.712 55.6004 69.9443 56.8746 70.8452 58.5136L71.7216 58.0319C70.7361 56.239 69.3775 54.8314 67.6499 53.8187L67.1442 54.6813ZM70.8464 58.5158C71.7545 60.1482 72.2152 62.0285 72.2152 64.1705H73.2152C73.2152 61.8806 72.7213 59.8291 71.7203 58.0297L70.8464 58.5158ZM72.2152 64.1705C72.2152 66.4857 71.6677 68.5184 70.5845 70.284L71.4368 70.8069C72.6264 68.868 73.2152 66.6506 73.2152 64.1705H72.2152ZM70.5833 70.2859C69.5086 72.0554 67.9993 73.4482 66.0415 74.4654L66.5025 75.3528C68.613 74.2563 70.2627 72.7401 71.438 70.805L70.5833 70.2859ZM66.0424 74.4649C64.1031 75.4672 61.8154 75.9773 59.1641 75.9773V76.9773C61.9445 76.9773 64.3954 76.4418 66.5016 75.3533L66.0424 74.4649Z" fill="#BF8F01"/>
<defs>
<linearGradient id="paint0_linear_2_6" x1="-1" y1="9" x2="109" y2="109" gradientUnits="userSpaceOnUse">
<stop offset="0.03" stop-color="#E9C34F"/>
<stop offset="1" stop-color="#E9C34F"/>
</linearGradient>
</defs>
</svg>
